<svg width="23" height="22" viewBox="0 0 23 22" fill="none" xmlns="http://www.w3.org/2000/svg">
<path d="M21.6312 5.48046H5.98006L3.97604 0.934499C3.81084 0.559713 3.44122 0.318115 3.03133 0.318115H0V2.38305H2.35816L4.82266 7.97387L8.04086 18.2025C8.18231 18.6207 8.57568 18.9025 9.01758 18.9025H20.6494V16.8376H9.75786L9.09914 14.7727H19.5271C20.0134 14.7727 20.4398 14.4454 20.5699 13.9715L22.674 6.86706C22.8661 6.17015 22.3457 5.48046 21.6312 5.48046ZM18.7909 12.7077H8.42184L6.8494 7.54539H20.32L18.7909 12.7077Z" fill="white"/>
<path d="M20.6492 19.9349C21.2201 19.9349 21.6816 20.3964 21.6816 20.9674C21.6816 21.5384 21.2201 21.9999 20.6492 21.9999C20.0792 21.9999 19.6167 21.5384 19.6167 20.9674C19.6167 20.3964 20.0792 19.9349 20.6492 19.9349Z" fill="white"/>
<path d="M9.29175 19.9349C9.86167 19.9349 10.3242 20.3964 10.3242 20.9674C10.3242 21.5384 9.86167 21.9999 9.29175 21.9999C8.72182 21.9999 8.25928 21.5384 8.25928 20.9674C8.25928 20.3964 8.72182 19.9349 9.29175 19.9349Z" fill="white"/>
</svg>
