<?xml version="1.0" encoding="utf-8"?><svg width="27" height="26" viewBox="0 0 27 26" xmlns="http://www.w3.org/2000/svg" xmlns:xlink="http://www.w3.org/1999/xlink"><view id="a_basket" viewBox="0 0 27 26"/><svg width="27" height="26" fill="none" viewBox="-2 -2 27 26" xmlns="http://www.w3.org/2000/svg"><path d="M21.631 5.48H5.981L3.975.934a1.032 1.032 0 00-.945-.616H0v2.065h2.358l2.465 5.59 3.218 10.23c.141.418.535.7.977.7h11.631v-2.065H9.758l-.659-2.065h10.428c.486 0 .913-.328 1.043-.801l2.104-7.105a1.092 1.092 0 00-1.043-1.387zm-2.84 7.228H8.42L6.85 7.545H20.32l-1.53 5.163zM20.65 19.935a1.031 1.031 0 110 2.065 1.032 1.032 0 110-2.065zM9.292 19.935a1.032 1.032 0 110 2.064 1.032 1.032 0 010-2.064z" fill="#fff"/></svg></svg>